<mxfile host="app.diagrams.net" modified="2021-10-07T06:21:18.436Z" agent="5.0 (Windows NT 10.0; Win64; x64) AppleWebKit/537.36 (KHTML, like Gecko) Chrome/94.0.4606.61 Safari/537.36" etag="gfK2tjRZY9bEDhhx7aX-" version="14.9.3" type="github">
  <diagram id="vUVhkjfZ5mcpeV1Q1HUZ" name="Page-1">
    <mxGraphModel dx="1221" dy="578" grid="1" gridSize="10" guides="1" tooltips="1" connect="1" arrows="1" fold="1" page="1" pageScale="1" pageWidth="827" pageHeight="1169" math="0" shadow="0">
      <root>
        <mxCell id="0" />
        <mxCell id="1" parent="0" />
        <mxCell id="sKyTkcNVz7Gn5E3LvcYY-1" value="&lt;p&gt;&lt;font style=&quot;font-size: 14px&quot;&gt;Work scheduling service&lt;/font&gt;&lt;/p&gt;" style="rounded=0;whiteSpace=wrap;html=1;fillColor=#dae8fc;strokeColor=#6c8ebf;" vertex="1" parent="1">
          <mxGeometry x="90" y="165" width="190" height="60" as="geometry" />
        </mxCell>
        <mxCell id="sKyTkcNVz7Gn5E3LvcYY-3" value="&lt;p&gt;&lt;font style=&quot;font-size: 14px&quot;&gt;Offline statistics service&lt;/font&gt;&lt;/p&gt;" style="rounded=0;whiteSpace=wrap;html=1;fillColor=#dae8fc;strokeColor=#6c8ebf;" vertex="1" parent="1">
          <mxGeometry x="90" y="255" width="190" height="60" as="geometry" />
        </mxCell>
        <mxCell id="sKyTkcNVz7Gn5E3LvcYY-4" value="&lt;p&gt;&lt;font style=&quot;font-size: 14px&quot;&gt;Offline recommendation service&lt;/font&gt;&lt;/p&gt;" style="rounded=0;whiteSpace=wrap;html=1;fillColor=#dae8fc;strokeColor=#6c8ebf;" vertex="1" parent="1">
          <mxGeometry x="90" y="345" width="190" height="60" as="geometry" />
        </mxCell>
        <mxCell id="sKyTkcNVz7Gn5E3LvcYY-7" value="" style="ellipse;whiteSpace=wrap;html=1;shadow=0;opacity=0;" vertex="1" parent="1">
          <mxGeometry x="350" y="200" width="120" height="80" as="geometry" />
        </mxCell>
        <mxCell id="sKyTkcNVz7Gn5E3LvcYY-8" value="" style="ellipse;whiteSpace=wrap;html=1;shadow=0;opacity=0;fillColor=#cdeb8b;strokeColor=#36393d;" vertex="1" parent="1">
          <mxGeometry x="365" y="200" width="120" height="80" as="geometry" />
        </mxCell>
        <mxCell id="sKyTkcNVz7Gn5E3LvcYY-12" value="&lt;font style=&quot;font-size: 15px&quot;&gt;&lt;b&gt;Offline service&lt;/b&gt;&lt;/font&gt;" style="rounded=0;whiteSpace=wrap;html=1;shadow=0;sketch=0;fillColor=#dae8fc;strokeColor=#6c8ebf;" vertex="1" parent="1">
          <mxGeometry x="125" y="40" width="120" height="60" as="geometry" />
        </mxCell>
        <mxCell id="sKyTkcNVz7Gn5E3LvcYY-13" value="&lt;font style=&quot;font-size: 14px&quot;&gt;Main database&lt;/font&gt;" style="rounded=0;whiteSpace=wrap;html=1;shadow=0;sketch=0;fillColor=#ffe6cc;strokeColor=#d79b00;" vertex="1" parent="1">
          <mxGeometry x="350" y="430" width="150" height="60" as="geometry" />
        </mxCell>
        <mxCell id="sKyTkcNVz7Gn5E3LvcYY-14" value="&lt;font style=&quot;font-size: 14px&quot;&gt;Search server&lt;/font&gt;" style="rounded=0;whiteSpace=wrap;html=1;shadow=0;sketch=0;fillColor=#ffe6cc;strokeColor=#d79b00;" vertex="1" parent="1">
          <mxGeometry x="200" y="490" width="150" height="60" as="geometry" />
        </mxCell>
        <mxCell id="sKyTkcNVz7Gn5E3LvcYY-16" value="&lt;font style=&quot;font-size: 14px&quot;&gt;Cache database&lt;/font&gt;" style="rounded=0;whiteSpace=wrap;html=1;shadow=0;sketch=0;fillColor=#ffe6cc;strokeColor=#d79b00;" vertex="1" parent="1">
          <mxGeometry x="500" y="490" width="150" height="60" as="geometry" />
        </mxCell>
        <mxCell id="sKyTkcNVz7Gn5E3LvcYY-18" value="&lt;font style=&quot;font-size: 16px&quot;&gt;&lt;b&gt;Nearline service&lt;/b&gt;&lt;/font&gt;" style="rounded=0;whiteSpace=wrap;html=1;shadow=0;sketch=0;fillColor=#ffcc99;strokeColor=#36393d;" vertex="1" parent="1">
          <mxGeometry x="365" y="360" width="120" height="60" as="geometry" />
        </mxCell>
        <mxCell id="sKyTkcNVz7Gn5E3LvcYY-23" value="&lt;p&gt;&lt;font style=&quot;font-size: 14px&quot;&gt;Log collection service&lt;/font&gt;&lt;/p&gt;" style="rounded=0;whiteSpace=wrap;html=1;fillColor=#dae8fc;strokeColor=#6c8ebf;" vertex="1" parent="1">
          <mxGeometry x="610" y="180" width="190" height="60" as="geometry" />
        </mxCell>
        <mxCell id="sKyTkcNVz7Gn5E3LvcYY-24" value="&lt;p&gt;&lt;font style=&quot;font-size: 14px&quot;&gt;Message buffer service&lt;/font&gt;&lt;/p&gt;" style="rounded=0;whiteSpace=wrap;html=1;fillColor=#dae8fc;strokeColor=#6c8ebf;" vertex="1" parent="1">
          <mxGeometry x="610" y="270" width="190" height="60" as="geometry" />
        </mxCell>
        <mxCell id="sKyTkcNVz7Gn5E3LvcYY-25" value="&lt;p&gt;&lt;font style=&quot;font-size: 14px&quot;&gt;Real-time recommendation service&lt;/font&gt;&lt;/p&gt;" style="rounded=0;whiteSpace=wrap;html=1;fillColor=#dae8fc;strokeColor=#6c8ebf;" vertex="1" parent="1">
          <mxGeometry x="610" y="360" width="190" height="60" as="geometry" />
        </mxCell>
        <mxCell id="sKyTkcNVz7Gn5E3LvcYY-26" value="&lt;font style=&quot;font-size: 15px&quot;&gt;&lt;b&gt;Online service&lt;/b&gt;&lt;/font&gt;" style="rounded=0;whiteSpace=wrap;html=1;shadow=0;sketch=0;fillColor=#dae8fc;strokeColor=#6c8ebf;" vertex="1" parent="1">
          <mxGeometry x="645" y="55" width="120" height="60" as="geometry" />
        </mxCell>
        <mxCell id="sKyTkcNVz7Gn5E3LvcYY-28" value="&lt;font style=&quot;font-size: 16px&quot;&gt;&lt;b&gt;General Service&lt;/b&gt;&lt;/font&gt;" style="rounded=0;whiteSpace=wrap;html=1;shadow=0;sketch=0;fillColor=#cdeb8b;strokeColor=#36393d;" vertex="1" parent="1">
          <mxGeometry x="365" y="225" width="120" height="60" as="geometry" />
        </mxCell>
        <mxCell id="sKyTkcNVz7Gn5E3LvcYY-29" value="&lt;font style=&quot;font-size: 16px&quot;&gt;&lt;b&gt;User visualization&lt;/b&gt;&lt;/font&gt;" style="ellipse;whiteSpace=wrap;html=1;shadow=0;sketch=0;fillColor=#ffcccc;strokeColor=#36393d;" vertex="1" parent="1">
          <mxGeometry x="365" y="50" width="120" height="100" as="geometry" />
        </mxCell>
        <mxCell id="sKyTkcNVz7Gn5E3LvcYY-32" value="" style="shape=flexArrow;endArrow=classic;html=1;exitX=0.5;exitY=1;exitDx=0;exitDy=0;width=10.588235294117647;endSize=7.247058823529412;entryX=0.5;entryY=0;entryDx=0;entryDy=0;" edge="1" parent="1" source="sKyTkcNVz7Gn5E3LvcYY-29" target="sKyTkcNVz7Gn5E3LvcYY-28">
          <mxGeometry width="50" height="50" relative="1" as="geometry">
            <mxPoint x="450" y="280" as="sourcePoint" />
            <mxPoint x="500" y="230" as="targetPoint" />
          </mxGeometry>
        </mxCell>
        <mxCell id="sKyTkcNVz7Gn5E3LvcYY-34" value="" style="shape=flexArrow;endArrow=classic;html=1;entryX=0.5;entryY=0;entryDx=0;entryDy=0;exitX=0.5;exitY=1;exitDx=0;exitDy=0;" edge="1" parent="1" source="sKyTkcNVz7Gn5E3LvcYY-28" target="sKyTkcNVz7Gn5E3LvcYY-18">
          <mxGeometry width="50" height="50" relative="1" as="geometry">
            <mxPoint x="425" y="290" as="sourcePoint" />
            <mxPoint x="500" y="230" as="targetPoint" />
            <Array as="points">
              <mxPoint x="425" y="310" />
            </Array>
          </mxGeometry>
        </mxCell>
        <mxCell id="sKyTkcNVz7Gn5E3LvcYY-46" value="" style="ellipse;whiteSpace=wrap;html=1;shadow=0;sketch=0;fillOpacity=0;" vertex="1" parent="1">
          <mxGeometry x="180" y="420" width="500" height="170" as="geometry" />
        </mxCell>
        <mxCell id="sKyTkcNVz7Gn5E3LvcYY-48" value="" style="ellipse;whiteSpace=wrap;html=1;shadow=0;sketch=0;fillOpacity=0;" vertex="1" parent="1">
          <mxGeometry x="65" y="100" width="240" height="400" as="geometry" />
        </mxCell>
        <mxCell id="sKyTkcNVz7Gn5E3LvcYY-49" value="" style="ellipse;whiteSpace=wrap;html=1;shadow=0;sketch=0;fillOpacity=0;" vertex="1" parent="1">
          <mxGeometry x="585" y="120" width="240" height="400" as="geometry" />
        </mxCell>
      </root>
    </mxGraphModel>
  </diagram>
</mxfile>
